# Blender v3.3.1 OBJ File: ''
# www.blender.org
mtllib sub_main.mtl
o sub_main
v 0.000000 0.000000 -7.200000
v 0.000000 0.000000 -4.000000
v 14.500000 -0.000000 -7.200000
v 7.500000 -0.000000 -4.000000
v 0.000000 0.000000 0.000000
v 9.500000 -0.000000 0.000000
v 9.500000 -0.000000 -0.300000
v 14.500000 -0.000000 -4.700000
v 10.300000 -0.000000 -4.700000
v 10.300000 -0.000000 -0.300000
v 7.500000 -0.000000 -3.200000
v 0.000000 0.000000 -3.200000
v 10.300000 -1.000000 -0.300000
v 7.500000 -1.000000 -3.200000
v 10.300000 -1.000000 -4.700000
v 7.500000 -1.000000 -4.000000
v 14.500000 -1.000000 -0.300000
v 21.500000 -1.000000 0.000000
v 1.000000 -1.000000 0.000000
v 1.000000 -1.000000 -3.200000
v 21.500000 -1.000000 -6.200000
v 21.500000 -1.000000 -4.800000
v 17.000000 -1.000000 -4.800000
v 21.500000 -1.000000 -0.800000
v 17.000000 -1.000000 -0.800000
v 14.500000 -1.000000 -4.700000
v 1.000000 -1.000000 -6.200000
v 1.000000 -1.000000 -4.000000
v 22.500000 -1.000000 -0.800000
v 22.500000 -0.000000 -0.800000
v 22.500000 -0.000000 0.000000
v 22.500000 -4.000000 -1.000000
v 22.500000 -3.600000 -1.200000
v 22.500000 -4.000000 0.000000
v 22.500000 -1.800000 -1.200000
v 22.500000 -4.100000 -1.000000
v 22.500000 -4.100000 -4.000000
v 22.500000 -3.875000 -4.000000
v 22.500000 -3.600000 -4.800000
v 22.500000 -6.000000 0.000000
v 22.500000 -10.800000 0.000000
v 22.500000 -10.000000 -0.100000
v 22.500000 -10.800000 -0.100000
v 22.500000 -3.875000 -4.250000
v 22.500000 -6.125000 -4.250000
v 22.500000 -6.400000 -4.800000
v 22.500000 -6.125000 -4.000000
v 22.500000 -6.400000 -1.200000
v 22.500000 -0.000000 -7.200000
v 22.500000 -0.000000 -4.800000
v 22.500000 -1.000000 -4.800000
v 22.500000 -1.800000 -4.800000
v 22.500000 -10.000000 -7.200000
v 22.500000 -8.200000 -4.800000
v 22.500000 -8.200000 -1.200000
v 22.500000 -6.000000 -1.000000
v 22.500000 -5.900000 -1.000000
v 22.500000 -5.900000 -4.000000
v 22.400000 -3.875000 -4.000000
v 22.400000 -4.100000 -4.000000
v 17.000000 -0.000000 -4.800000
v 16.500000 -0.000000 0.000000
v 17.000000 -0.000000 -0.800000
v 16.500000 -0.000000 -7.200000
v -0.000000 -10.000000 -7.200000
v -0.000000 -10.000000 -0.100000
v -0.000000 -10.800000 -0.100000
v -0.000000 -10.800000 0.000000
v -0.000000 -5.600000 -3.200000
v -0.000000 -5.600000 -4.000000
v 16.500000 -4.000000 -7.200000
v 14.500000 -4.000000 -7.200000
v 21.500000 -9.000000 0.000000
v 16.500000 2.000000 0.000000
v 14.500000 2.000000 0.000000
v 14.500000 1.600000 0.000000
v 24.500000 -6.000000 0.000000
v 24.500000 -4.000000 0.000000
v 9.500000 1.600000 0.000000
v 1.000000 -9.000000 0.000000
v 16.500000 -4.000000 -8.800000
v 16.500000 2.000000 -8.800000
v 14.500000 1.600000 -0.300000
v 14.500000 2.000000 -8.800000
v 14.500000 -4.000000 -8.800000
v 21.500000 -9.000000 -6.200000
v 21.500000 -8.200000 -1.200000
v 21.500000 -3.600000 -4.800000
v 21.500000 -4.100000 -4.000000
v 21.500000 -3.600000 -1.200000
v 21.500000 -4.100000 -1.000000
v 21.500000 -8.200000 -4.800000
v 21.500000 -6.400000 -4.800000
v 21.500000 -1.800000 -1.200000
v 21.500000 -5.900000 -1.000000
v 21.500000 -5.900000 -4.000000
v 21.500000 -6.400000 -1.200000
v 21.500000 -1.800000 -4.800000
v 1.000000 -9.000000 -6.200000
v 1.000000 -5.600000 -3.200000
v 1.000000 -5.600000 -4.000000
v 9.500000 1.600000 -0.300000
v 23.166666 -6.000000 -1.000000
v 23.166666 -4.000000 -1.000000
v 24.500000 -4.000000 -0.333333
v 24.500000 -6.000000 -0.333333
v 23.833334 -4.000000 -0.333333
v 23.833334 -6.000000 -0.333333
v 23.833334 -4.000000 -0.666667
v 23.833334 -6.000000 -0.666667
v 23.166666 -4.000000 -0.666667
v 23.166666 -6.000000 -0.666667
v 22.400000 -5.900000 -4.000000
v 22.400000 -6.125000 -4.000000
v 22.400000 -3.875000 -4.250000
v 22.400000 -6.125000 -4.250000
vt 0.000000 0.000000
vt 1.000000 0.000000
vt 1.000000 1.000000
vt 0.000000 0.000000
vt 1.000000 1.000000
vt 0.000000 0.000000
vt 1.000000 0.000000
vt 1.000000 1.000000
vt 0.000000 0.000000
vt 1.000000 0.000000
vt 1.000000 1.000000
vt 0.000000 0.000000
vt 1.000000 0.000000
vt 1.000000 1.000000
vt 0.000000 0.000000
vt 1.000000 1.000000
vt 1.000000 0.000000
vt 0.000000 0.000000
vt 1.000000 1.000000
vt 1.000000 0.000000
vt 1.000000 1.000000
vt 0.000000 0.000000
vt 1.000000 0.000000
vt 1.000000 1.000000
vt 0.000000 0.000000
vt 1.000000 1.000000
vt 0.000000 0.000000
vt 1.000000 0.000000
vt 1.000000 1.000000
vt 1.000000 1.000000
vt 1.000000 0.000000
vt 1.000000 1.000000
vt 0.000000 0.000000
vt 1.000000 1.000000
vt 0.000000 0.000000
vt 1.000000 0.000000
vt 1.000000 1.000000
vt 0.000000 0.000000
vt 1.000000 1.000000
vt 0.000000 0.000000
vt 1.000000 1.000000
vt 1.000000 0.000000
vt 0.000000 0.000000
vt 1.000000 1.000000
vt 1.000000 0.000000
vt 1.000000 1.000000
vt 1.000000 0.000000
vt 1.000000 1.000000
vt 0.000000 0.000000
vt 1.000000 0.000000
vt 1.000000 1.000000
vt 0.162126 0.379422
vt 0.157746 0.367653
vt 0.164877 0.366294
vt 0.189859 0.421561
vt 0.183418 0.418061
vt 0.207749 0.409996
vt 0.163670 0.390717
vt 0.000000 0.000000
vt 1.000000 0.000000
vt 1.000000 1.000000
vt 0.150138 0.449694
vt 0.147682 0.446139
vt 0.132763 0.450176
vt 0.240860 0.436424
vt 0.321334 0.524932
vt 0.306136 0.511845
vt 0.319489 0.526602
vt 0.144039 0.448523
vt 0.167356 0.483987
vt 0.162184 0.493488
vt 0.170973 0.481373
vt 0.000000 0.000000
vt 1.000000 0.000000
vt 1.000000 1.000000
vt 0.054042 0.413084
vt 0.084585 0.395926
vt 0.099996 0.405037
vt 0.107935 0.417897
vt 0.152119 0.577995
vt 0.176817 0.523143
vt 0.246975 0.492418
vt 0.000000 0.000000
vt 1.000000 0.000000
vt 1.000000 0.000000
vt 1.000000 1.000000
vt 0.000000 0.000000
vt 1.000000 1.000000
vt 1.000000 1.000000
vt 0.000000 0.000000
vt 1.000000 1.000000
vt 0.000000 0.000000
vt 1.000000 0.000000
vt 1.000000 1.000000
vt 0.000000 0.000000
vt 1.000000 1.000000
vt 0.083275 0.310436
vt 0.176888 0.279599
vt 0.161975 0.291430
vt 0.040890 0.311709
vt 0.000000 0.000000
vt 1.000000 0.000000
vt 1.000000 1.000000
vt 0.515769 0.999928
vt 0.000000 0.000000
vt 1.000000 0.000000
vt 1.000000 1.000000
vt 1.000000 1.000000
vt 0.000000 0.000000
vt 1.000000 0.000000
vt 1.000000 1.000000
vt 0.000000 0.000000
vt 1.000000 1.000000
vt 1.000000 0.000000
vt 0.000000 0.000000
vt 1.000000 0.000000
vt 0.238457 0.000072
vt 0.482971 0.063669
vt 0.515769 0.077391
vt 0.000000 0.000000
vt 1.000000 0.000000
vt 1.000000 1.000000
vt 0.000000 0.000000
vt 1.000000 1.000000
vt 1.000000 1.000000
vt 0.000000 0.000000
vt 1.000000 1.000000
vt 0.251435 0.023789
vt 0.176762 0.361990
vt 0.305124 0.468039
vt 0.144390 0.251821
vt 0.153365 0.219783
vt 0.160179 0.222758
vt 0.222368 0.449911
vt 0.212538 0.437162
vt 0.184539 0.161442
vt 0.205708 0.156912
vt 0.467818 0.089246
vt 1.000000 0.000000
vt 1.000000 1.000000
vt 1.000000 1.000000
vt 0.009316 0.288832
vt 0.000000 0.000000
vt 1.000000 0.000000
vt 1.000000 1.000000
vt 1.000000 0.000000
vt 1.000000 1.000000
vt 1.000000 0.000000
vt 1.000000 1.000000
vt 1.000000 0.000000
vt 1.000000 1.000000
vt 1.000000 0.000000
vt 1.000000 1.000000
vt 0.000072 0.246169
vt 0.000000 0.000000
vt 0.000000 0.000000
vt 0.000000 0.000000
vt 1.000000 0.000000
vt 1.000000 1.000000
vt 0.000000 0.000000
vt 1.000000 0.000000
vt 1.000000 1.000000
vt 0.000000 0.000000
vt 1.000000 1.000000
vt 0.000000 0.000000
vt 1.000000 0.000000
vt 1.000000 1.000000
vt 1.000000 1.000000
vt 1.000000 0.000000
vt 0.000000 0.000000
vt 1.000000 0.000000
vt 1.000000 1.000000
vt 0.000000 0.000000
vt 1.000000 0.000000
vt 1.000000 1.000000
vt 0.000000 0.000000
vt 1.000000 1.000000
vt 1.000000 0.000000
vt 0.000000 0.000000
vt 0.000000 0.000000
vt 1.000000 1.000000
vt 1.000000 0.000000
vt 0.000000 0.000000
vt 1.000000 1.000000
vt 1.000000 0.000000
vt 1.000000 1.000000
vt 1.000000 0.000000
vt 1.000000 1.000000
vt 0.000000 0.000000
vt 1.000000 1.000000
vt 1.000000 0.000000
vt 1.000000 1.000000
vt 1.000000 0.000000
vt 0.358871 0.161764
vt 0.000000 0.000000
vt 1.000000 1.000000
vt 0.330411 0.108917
vt 0.000000 0.000000
vt 1.000000 0.000000
vt 1.000000 1.000000
vt 0.000000 0.000000
vt 1.000000 1.000000
vt 0.000000 0.000000
vt 1.000000 0.000000
vt 0.000000 0.000000
vt 1.000000 0.000000
vt 1.000000 1.000000
vt 0.181604 0.157771
vt 0.000000 0.000000
vt 0.000000 0.000000
vt 0.000000 0.000000
vt 1.000000 0.000000
vt 1.000000 1.000000
vt 0.000000 0.000000
vt 0.000000 0.000000
vt 1.000000 0.000000
vt 1.000000 1.000000
vt 1.000000 0.000000
vt 0.000000 0.000000
vt 0.210569 0.438289
vt 0.218297 0.450667
vt 0.000000 0.000000
vt 1.000000 0.000000
vt 1.000000 1.000000
vt 0.000000 0.000000
vt 1.000000 1.000000
vt 0.000000 0.000000
vt 1.000000 0.000000
vt 1.000000 1.000000
vt 0.000000 0.000000
vt 0.000000 0.000000
vt 1.000000 0.000000
vt 1.000000 1.000000
vt 0.000000 0.000000
vt 1.000000 0.000000
vt 1.000000 1.000000
vt 0.207366 0.432857
vt 0.195186 0.430903
vt 0.199609 0.428299
vt 0.202812 0.435227
vt 1.000000 0.000000
vt 1.000000 1.000000
vt 0.000000 0.000000
vt 1.000000 0.000000
vt 1.000000 0.000000
vt 0.519967 0.001874
vt 0.515913 0.001874
vt 0.519967 0.000072
vt 0.000000 0.000000
vt 1.000000 1.000000
vt 1.000000 0.000000
vt 1.000000 1.000000
vt 0.000000 0.000000
vt 1.000000 1.000000
vt 0.000000 0.000000
vt 1.000000 0.000000
vt 0.000000 0.000000
vt 1.000000 1.000000
vt 0.000000 0.000000
vt 1.000000 0.000000
vt 0.000000 0.000000
vt 1.000000 0.000000
vt 1.000000 0.000000
vt 1.000000 1.000000
vt 1.000000 1.000000
vt 1.000000 0.000000
vt 0.000000 0.000000
vt 1.000000 0.000000
vt 1.000000 1.000000
vt 0.000000 0.000000
vt 0.000000 0.000000
vt 1.000000 1.000000
vt 0.000000 0.000000
vt 0.000000 0.000000
vt 1.000000 1.000000
vt 0.000000 0.000000
vt 1.000000 1.000000
vt 1.000000 0.000000
vt 1.000000 0.000000
vt 0.000000 0.000000
vt 1.000000 1.000000
vt 0.000000 0.000000
vt 1.000000 0.000000
vt 1.000000 1.000000
vt 1.000000 0.000000
vt 1.000000 1.000000
vt 1.000000 0.000000
vt 1.000000 1.000000
vt 0.100710 0.323444
vt 0.102108 0.384912
vt 0.000000 0.000000
vt 1.000000 0.000000
vt 1.000000 1.000000
vt 0.000000 0.000000
vt 1.000000 1.000000
vt 0.000000 0.000000
vt 0.137085 0.432681
vt 1.000000 1.000000
vt 0.000000 0.000000
vt 1.000000 1.000000
vt 0.000000 0.000000
vt 0.000000 0.000000
vt 0.000000 0.000000
vt 1.000000 1.000000
vt 0.180894 0.506685
vt 0.000000 0.000000
vt 1.000000 0.000000
vt 1.000000 1.000000
vt 0.000000 0.000000
vt 1.000000 1.000000
vt 0.000000 0.000000
vn 0.0000 1.0000 0.0000
vn 0.0000 -1.0000 0.0000
vn 1.0000 0.0000 0.0000
vn 0.0000 0.0000 -1.0000
vn -1.0000 0.0000 0.0000
vn 0.0000 0.0000 1.0000
g sub_main_sub_main_매테리얼
usemtl 매테리얼
s off
f 1/1/1 2/2/1 3/3/1
f 3/4/1 2/2/1 4/5/1
f 5/6/1 6/7/1 7/8/1
f 8/9/1 3/10/1 9/11/1
f 9/12/1 3/10/1 4/5/1
f 9/12/1 4/13/1 10/14/1
f 10/15/1 4/13/1 11/16/1
f 10/15/1 11/17/1 7/8/1
f 7/18/1 11/17/1 12/19/1
f 7/18/1 12/20/1 5/21/1
f 13/22/2 14/23/2 15/24/2
f 15/25/2 14/23/2 16/26/2
f 17/27/2 18/28/2 13/29/2
f 13/22/2 18/28/2 19/30/2
f 13/22/2 19/31/2 14/32/2
f 14/33/2 19/31/2 20/34/2
f 21/35/2 22/36/2 23/37/2
f 24/38/2 18/28/2 25/39/2
f 25/40/2 18/28/2 17/41/2
f 25/40/2 17/42/2 23/37/2
f 23/43/2 17/42/2 26/44/2
f 23/43/2 26/45/2 21/46/2
f 21/35/2 26/45/2 15/24/2
f 21/35/2 15/47/2 27/48/2
f 27/49/2 15/47/2 16/26/2
f 27/49/2 16/50/2 28/51/2
f 29/52/3 30/53/3 31/54/3
f 32/55/3 33/56/3 34/57/3
f 34/57/3 33/56/3 35/58/3
f 36/59/3 37/60/3 32/61/3
f 32/55/3 37/62/3 38/63/3
f 32/55/3 38/63/3 33/56/3
f 33/56/3 38/63/3 39/64/3
f 40/65/3 41/66/3 42/67/3
f 42/67/3 41/66/3 43/68/3
f 38/63/3 44/69/3 39/64/3
f 39/64/3 44/69/3 45/70/3
f 39/64/3 45/70/3 46/71/3
f 46/71/3 45/70/3 47/72/3
f 46/73/3 47/74/3 48/75/3
f 49/76/3 50/77/3 51/78/3
f 31/54/3 34/57/3 29/52/3
f 29/52/3 34/57/3 35/58/3
f 29/52/3 35/58/3 51/78/3
f 51/78/3 35/58/3 52/79/3
f 51/78/3 52/79/3 49/76/3
f 52/79/3 39/64/3 49/76/3
f 49/76/3 39/64/3 46/71/3
f 49/76/3 46/71/3 53/80/3
f 53/80/3 46/71/3 54/81/3
f 53/80/3 54/81/3 42/67/3
f 42/67/3 54/81/3 55/82/3
f 42/67/3 55/82/3 40/65/3
f 40/83/3 55/84/3 48/75/3
f 40/83/3 48/85/3 56/86/3
f 56/87/3 48/85/3 47/88/3
f 56/87/3 47/74/3 57/89/3
f 57/90/3 47/74/3 58/91/3
f 59/92/4 38/93/4 60/94/4
f 60/95/4 38/93/4 37/96/4
f 61/97/1 50/77/1 49/76/1
f 62/98/1 31/54/1 30/53/1
f 30/53/1 63/99/1 62/98/1
f 62/98/1 63/99/1 61/97/1
f 62/98/1 61/97/1 64/100/1
f 64/100/1 61/97/1 49/76/1
f 65/101/2 53/102/2 66/103/2
f 66/104/2 53/80/2 42/67/2
f 66/105/5 67/106/5 68/107/5
f 5/6/5 12/20/5 69/108/5
f 2/109/5 1/110/5 70/111/5
f 70/112/5 1/110/5 65/113/5
f 70/112/5 65/114/5 69/108/5
f 69/115/5 65/114/5 66/103/5
f 69/115/5 66/116/5 5/21/5
f 5/117/5 66/118/5 68/119/5
f 64/120/4 49/121/4 71/122/4
f 71/123/4 49/121/4 53/124/4
f 71/123/4 53/102/4 72/125/4
f 72/126/4 53/102/4 65/113/4
f 72/126/4 65/114/4 3/3/4
f 3/4/4 65/114/4 1/127/4
f 62/98/6 19/128/6 18/129/6
f 40/65/6 18/129/6 73/130/6
f 74/131/6 75/132/6 62/98/6
f 62/98/6 75/132/6 76/133/6
f 77/134/6 78/135/6 40/65/6
f 40/65/6 78/135/6 34/57/6
f 40/65/6 34/57/6 18/129/6
f 18/129/6 34/57/6 31/54/6
f 18/129/6 31/54/6 62/98/6
f 76/133/6 79/136/6 62/98/6
f 62/98/6 79/136/6 6/137/6
f 62/98/6 6/137/6 19/128/6
f 19/128/6 6/137/6 5/117/6
f 19/128/6 5/117/6 80/138/6
f 80/138/6 5/117/6 68/119/6
f 80/138/6 68/119/6 73/130/6
f 73/130/6 68/119/6 41/66/6
f 73/130/6 41/66/6 40/65/6
f 71/123/3 81/139/3 64/140/3
f 64/120/3 81/139/3 82/141/3
f 64/100/3 82/142/3 62/98/3
f 62/98/3 82/142/3 74/131/3
f 83/143/5 76/144/5 75/145/5
f 8/9/5 26/45/5 17/41/5
f 17/27/5 83/146/5 8/147/5
f 8/9/5 83/146/5 75/145/5
f 8/9/5 75/148/5 3/3/5
f 3/4/5 75/148/5 84/149/5
f 3/4/5 84/150/5 72/125/5
f 72/126/5 84/150/5 85/151/5
f 72/126/2 85/152/2 71/122/2
f 71/123/2 85/152/2 81/153/2
f 82/142/1 84/154/1 74/131/1
f 74/131/1 84/154/1 75/132/1
f 85/155/4 84/150/4 81/153/4
f 81/156/4 84/150/4 82/141/4
f 86/157/5 73/158/5 87/159/5
f 88/160/5 89/161/5 90/162/5
f 90/163/5 89/161/5 91/164/5
f 87/165/5 92/166/5 86/167/5
f 86/157/5 92/166/5 93/168/5
f 86/157/5 93/169/5 21/46/5
f 94/170/5 90/171/5 18/172/5
f 18/173/5 90/171/5 91/164/5
f 18/173/5 91/174/5 73/175/5
f 73/176/5 91/174/5 95/177/5
f 73/176/5 95/178/5 87/159/5
f 96/179/5 93/169/5 95/177/5
f 95/180/5 93/169/5 97/181/5
f 95/180/5 97/182/5 87/159/5
f 96/179/5 89/161/5 93/168/5
f 93/183/5 89/161/5 88/184/5
f 93/183/5 88/185/5 21/46/5
f 21/35/5 88/185/5 98/186/5
f 21/35/5 98/187/5 22/188/5
f 22/189/5 98/187/5 94/190/5
f 22/189/5 94/191/5 24/192/5
f 24/38/5 94/191/5 18/172/5
f 86/157/1 99/193/1 73/175/1
f 73/130/1 99/194/1 80/138/1
f 20/195/3 19/31/3 100/196/3
f 100/197/3 19/128/3 80/138/3
f 100/198/3 80/199/3 101/200/3
f 101/201/3 80/199/3 99/202/3
f 101/201/3 99/193/3 28/51/3
f 28/203/3 99/193/3 27/48/3
f 86/157/6 21/204/6 99/202/6
f 99/205/6 21/204/6 27/48/6
f 7/18/4 102/206/4 10/14/4
f 10/15/4 102/206/4 83/207/4
f 10/15/4 83/146/4 13/29/4
f 13/22/4 83/146/4 17/41/4
f 79/136/5 102/208/5 6/137/5
f 6/209/5 102/206/5 7/8/5
f 79/136/1 76/133/1 102/208/1
f 102/210/1 76/144/1 83/207/1
f 103/211/4 56/212/4 104/213/4
f 104/214/4 56/212/4 57/89/4
f 32/215/4 104/216/4 36/217/4
f 36/59/4 104/216/4 57/89/4
f 36/59/4 57/218/4 91/164/4
f 91/219/4 57/218/4 95/177/4
f 105/220/3 78/135/3 106/221/3
f 106/221/3 78/135/3 77/134/3
f 107/222/4 105/223/4 108/224/4
f 108/225/4 105/223/4 106/226/4
f 109/227/3 107/228/3 110/229/3
f 110/230/3 107/228/3 108/224/3
f 111/231/4 109/232/4 112/233/4
f 112/234/4 109/232/4 110/229/4
f 104/214/3 111/235/3 103/236/3
f 103/211/3 111/235/3 112/233/3
f 34/57/1 78/135/1 107/237/1
f 107/237/1 78/135/1 105/220/1
f 104/238/1 32/55/1 111/239/1
f 111/239/1 32/55/1 34/57/1
f 111/239/1 34/57/1 109/240/1
f 109/240/1 34/57/1 107/237/1
f 56/87/2 103/241/2 40/242/2
f 40/83/2 103/241/2 112/233/2
f 106/243/2 77/244/2 108/224/2
f 108/225/2 77/244/2 40/242/2
f 108/225/2 40/245/2 110/229/2
f 110/230/2 40/245/2 112/233/2
f 58/246/4 47/247/4 113/248/4
f 113/249/4 47/74/4 114/250/4
f 59/92/2 115/251/2 38/252/2
f 38/253/2 115/251/2 44/254/2
f 115/255/6 116/256/6 44/254/6
f 44/257/6 116/256/6 45/258/6
f 116/259/1 114/260/1 45/258/1
f 45/261/1 114/260/1 47/88/1
f 115/255/3 59/262/3 60/94/3
f 115/255/3 60/263/3 116/264/3
f 116/259/3 60/263/3 113/265/3
f 116/259/3 113/266/3 114/250/3
f 37/267/2 36/268/2 60/94/2
f 60/95/2 36/268/2 91/164/2
f 60/95/2 91/174/2 89/269/2
f 96/179/6 113/266/6 89/269/6
f 89/270/6 113/266/6 60/94/6
f 96/179/1 95/178/1 113/265/1
f 113/249/1 95/178/1 57/89/1
f 113/249/1 57/218/1 58/91/1
f 15/25/6 26/45/6 9/11/6
f 9/12/6 26/45/6 8/147/6
f 13/22/3 15/47/3 10/14/3
f 10/15/3 15/47/3 9/11/3
f 43/271/4 67/106/4 42/272/4
f 42/273/4 67/106/4 66/103/4
f 68/274/2 67/106/2 41/275/2
f 41/276/2 67/106/2 43/277/2
f 100/198/4 69/278/4 20/34/4
f 20/195/4 69/278/4 12/19/4
f 20/195/4 12/20/4 14/32/4
f 14/33/4 12/20/4 11/16/4
f 100/198/1 101/279/1 69/108/1
f 69/115/1 101/279/1 70/111/1
f 16/280/6 4/13/6 28/51/6
f 28/203/6 4/13/6 2/281/6
f 28/203/6 2/2/6 101/200/6
f 101/201/6 2/2/6 70/111/6
f 16/280/5 14/23/5 4/5/5
f 4/282/5 14/23/5 11/16/5
f 25/40/4 63/283/4 24/192/4
f 24/38/4 63/283/4 30/284/4
f 24/38/4 30/285/4 29/286/4
f 25/40/3 23/287/3 63/288/3
f 63/99/3 23/289/3 61/97/3
f 61/97/6 23/289/6 50/77/6
f 50/77/6 23/289/6 22/290/6
f 50/77/6 22/290/6 51/78/6
f 29/291/1 51/292/1 24/192/1
f 24/38/1 51/292/1 22/188/1
f 94/170/2 98/187/2 35/293/2
f 35/294/2 98/187/2 52/295/2
f 98/296/6 88/185/6 52/295/6
f 52/79/6 88/297/6 39/64/6
f 88/160/1 90/171/1 39/298/1
f 39/299/1 90/171/1 33/300/1
f 90/163/4 94/191/4 33/300/4
f 33/301/4 94/191/4 35/293/4
f 97/302/2 93/169/2 48/75/2
f 48/303/2 93/169/2 46/304/2
f 93/183/6 92/166/6 46/304/6
f 46/71/6 92/305/6 54/81/6
f 92/306/1 87/307/1 54/308/1
f 54/309/1 87/307/1 55/310/1
f 87/165/4 97/182/4 55/310/4
f 55/311/4 97/182/4 48/75/4
